<svg xmlns="http://www.w3.org/2000/svg" xmlns:xlink="http://www.w3.org/1999/xlink" width="500" zoomAndPan="magnify" viewBox="0 0 375 374.999991" height="500" preserveAspectRatio="xMidYMid meet" version="1.0"><defs><g/><clipPath id="11290a9a49"><path d="M 0 0 L 375 0 L 375 375 L 0 375 Z M 0 0 " clip-rule="nonzero"/></clipPath><clipPath id="f8daad8b75"><rect x="0" width="375" y="0" height="375"/></clipPath><clipPath id="a4a112a8d0"><path d="M 56 107 L 319 107 L 319 235 L 56 235 Z M 56 107 " clip-rule="nonzero"/></clipPath><clipPath id="57d8330800"><path d="M 38.199219 138.207031 L 233.71875 25.355469 L 336.824219 203.984375 L 141.304688 316.835938 Z M 38.199219 138.207031 " clip-rule="nonzero"/></clipPath><clipPath id="57fbb8212c"><path d="M 38.199219 138.207031 L 233.71875 25.355469 L 336.824219 203.984375 L 141.304688 316.835938 Z M 38.199219 138.207031 " clip-rule="nonzero"/></clipPath><clipPath id="139f703426"><path d="M 38.199219 138.207031 L 233.71875 25.355469 L 336.824219 203.984375 L 141.304688 316.835938 Z M 38.199219 138.207031 " clip-rule="nonzero"/></clipPath><clipPath id="5432f91116"><rect x="0" width="231" y="0" height="89"/></clipPath><clipPath id="4e6fc3c791"><rect x="0" width="57" y="0" height="89"/></clipPath></defs><rect x="-37.5" width="450" fill="#ffffff" y="-37.499999" height="449.999989" fill-opacity="1"/><g transform="matrix(1, 0, 0, 1, 0, 0)"><g clip-path="url(#f8daad8b75)"><g clip-path="url(#11290a9a49)"><rect x="-82.5" width="540" fill="#fffdf0" height="539.999987" y="-82.499998" fill-opacity="1"/></g></g></g><g clip-path="url(#a4a112a8d0)"><g clip-path="url(#57d8330800)"><g clip-path="url(#57fbb8212c)"><g clip-path="url(#139f703426)"><path fill="#000000" d="M 209.273438 190.0625 L 223.8125 215.25 L 272.867188 215.910156 L 296.832031 173.101562 L 271.265625 128.804688 L 222.203125 128.136719 L 163.867188 233.203125 L 93.011719 232.242188 L 56.769531 169.453125 L 91.378906 107.621094 L 162.242188 108.574219 L 176.5 133.277344 L 165.890625 152.375 L 151.351562 127.183594 L 102.289062 126.523438 L 78.332031 169.332031 L 103.902344 213.632812 L 152.957031 214.300781 L 211.296875 109.238281 L 282.160156 110.199219 L 318.394531 172.976562 L 283.78125 234.816406 L 212.921875 233.855469 L 198.667969 209.160156 Z M 209.273438 190.0625 " fill-opacity="1" fill-rule="nonzero"/></g></g></g></g><g transform="matrix(1, 0, 0, 1, 68, 252)"><g clip-path="url(#5432f91116)"><g fill="#000000" fill-opacity="1"><g transform="translate(0.561653, 69.557036)"><g><path d="M 36.765625 -45.859375 L 36.765625 -38.25 L 23.53125 -38.25 L 23.53125 0 L 14.5 0 L 14.5 -38.25 L 1.25 -38.25 L 1.25 -45.859375 Z M 36.765625 -45.859375 "/></g></g></g><g fill="#000000" fill-opacity="1"><g transform="translate(34.126023, 69.557036)"><g><path d="M 34.203125 -15.34375 L 11.953125 -15.34375 C 12.203125 -12.332031 13.054688 -10.140625 14.515625 -8.765625 C 15.984375 -7.398438 17.984375 -6.71875 20.515625 -6.71875 C 22.503906 -6.71875 24.113281 -7.085938 25.34375 -7.828125 C 26.582031 -8.566406 27.578125 -9.691406 28.328125 -11.203125 L 28.984375 -11.203125 L 34.765625 -7.5 C 33.628906 -5.070312 31.921875 -3.101562 29.640625 -1.59375 C 27.367188 -0.09375 24.328125 0.65625 20.515625 0.65625 C 16.941406 0.65625 13.851562 -0.0195312 11.25 -1.375 C 8.644531 -2.738281 6.632812 -4.765625 5.21875 -7.453125 C 3.8125 -10.140625 3.109375 -13.414062 3.109375 -17.28125 C 3.109375 -21.21875 3.847656 -24.535156 5.328125 -27.234375 C 6.816406 -29.929688 8.828125 -31.941406 11.359375 -33.265625 C 13.890625 -34.597656 16.734375 -35.265625 19.890625 -35.265625 C 24.785156 -35.265625 28.535156 -33.96875 31.140625 -31.375 C 33.742188 -28.78125 35.046875 -24.972656 35.046875 -19.953125 C 35.046875 -18.128906 34.984375 -16.71875 34.859375 -15.71875 Z M 26.734375 -20.953125 C 26.648438 -23.585938 26.035156 -25.503906 24.890625 -26.703125 C 23.753906 -27.910156 22.085938 -28.515625 19.890625 -28.515625 C 15.492188 -28.515625 12.910156 -25.992188 12.140625 -20.953125 Z M 26.734375 -20.953125 "/></g></g></g><g fill="#000000" fill-opacity="1"><g transform="translate(71.737689, 69.557036)"><g/></g></g><g fill="#000000" fill-opacity="1"><g transform="translate(86.888972, 69.557036)"><g/></g></g><g fill="#000000" fill-opacity="1"><g transform="translate(102.040255, 69.557036)"><g/></g></g><g fill="#000000" fill-opacity="1"><g transform="translate(117.191538, 69.557036)"><g/></g></g><g fill="#000000" fill-opacity="1"><g transform="translate(132.353081, 69.557036)"><g><path d="M 13.484375 0.65625 C 11.273438 0.65625 9.351562 0.25 7.71875 -0.5625 C 6.082031 -1.375 4.828125 -2.570312 3.953125 -4.15625 C 3.078125 -5.738281 2.640625 -7.632812 2.640625 -9.84375 C 2.640625 -11.894531 3.078125 -13.613281 3.953125 -15 C 4.828125 -16.394531 6.1875 -17.535156 8.03125 -18.421875 C 9.875 -19.316406 12.28125 -20.003906 15.25 -20.484375 C 17.320312 -20.816406 18.894531 -21.179688 19.96875 -21.578125 C 21.039062 -21.984375 21.765625 -22.4375 22.140625 -22.9375 C 22.523438 -23.4375 22.71875 -24.070312 22.71875 -24.84375 C 22.71875 -25.957031 22.328125 -26.804688 21.546875 -27.390625 C 20.773438 -27.972656 19.488281 -28.265625 17.6875 -28.265625 C 15.769531 -28.265625 13.941406 -27.832031 12.203125 -26.96875 C 10.460938 -26.113281 8.957031 -24.988281 7.6875 -23.59375 L 7.0625 -23.59375 L 3.421875 -29.078125 C 5.179688 -31.023438 7.320312 -32.539062 9.84375 -33.625 C 12.375 -34.71875 15.140625 -35.265625 18.140625 -35.265625 C 22.710938 -35.265625 26.023438 -34.289062 28.078125 -32.34375 C 30.128906 -30.394531 31.15625 -27.632812 31.15625 -24.0625 L 31.15625 -9.03125 C 31.15625 -7.488281 31.832031 -6.71875 33.1875 -6.71875 C 33.707031 -6.71875 34.222656 -6.8125 34.734375 -7 L 35.171875 -6.875 L 35.796875 -0.8125 C 35.316406 -0.5 34.644531 -0.242188 33.78125 -0.046875 C 32.925781 0.148438 31.988281 0.25 30.96875 0.25 C 28.894531 0.25 27.273438 -0.144531 26.109375 -0.9375 C 24.953125 -1.738281 24.125 -2.984375 23.625 -4.671875 L 22.96875 -4.734375 C 21.269531 -1.140625 18.109375 0.65625 13.484375 0.65625 Z M 16.25 -5.828125 C 18.257812 -5.828125 19.863281 -6.5 21.0625 -7.84375 C 22.269531 -9.195312 22.875 -11.078125 22.875 -13.484375 L 22.875 -17 L 22.28125 -17.125 C 21.75 -16.707031 21.0625 -16.359375 20.21875 -16.078125 C 19.375 -15.796875 18.15625 -15.519531 16.5625 -15.25 C 14.675781 -14.9375 13.320312 -14.394531 12.5 -13.625 C 11.675781 -12.863281 11.265625 -11.785156 11.265625 -10.390625 C 11.265625 -8.898438 11.703125 -7.765625 12.578125 -6.984375 C 13.453125 -6.210938 14.675781 -5.828125 16.25 -5.828125 Z M 16.25 -5.828125 "/></g></g></g><g fill="#000000" fill-opacity="1"><g transform="translate(168.841466, 69.557036)"><g/></g></g><g fill="#000000" fill-opacity="1"><g transform="translate(183.992749, 69.557036)"><g/></g></g><g fill="#000000" fill-opacity="1"><g transform="translate(199.144032, 69.557036)"><g/></g></g><g fill="#000000" fill-opacity="1"><g transform="translate(214.295315, 69.557036)"><g/></g></g></g></g><g transform="matrix(1, 0, 0, 1, 143, 267)"><g clip-path="url(#4e6fc3c791)"><g fill="#000000" fill-opacity="1"><g transform="translate(55.885809, 19.782368)"><g><path d="M -4.984375 0 L -4.984375 34.609375 L -13.421875 34.609375 L -13.421875 29.453125 L -14.09375 29.328125 C -14.925781 31.253906 -16.019531 32.664062 -17.375 33.5625 C -18.738281 34.46875 -20.394531 34.921875 -22.34375 34.921875 C -24.300781 34.921875 -25.796875 34.582031 -26.828125 33.90625 L -25.34375 26.421875 L -24.6875 26.296875 C -24.125 26.523438 -23.582031 26.691406 -23.0625 26.796875 C -22.539062 26.898438 -21.898438 26.953125 -21.140625 26.953125 C -18.710938 26.953125 -16.859375 26.097656 -15.578125 24.390625 C -14.304688 22.679688 -13.671875 19.945312 -13.671875 16.1875 L -13.671875 0 Z M -4.984375 0 "/></g></g></g><g fill="#000000" fill-opacity="1"><g transform="translate(28.751529, 19.782368)"><g><path d="M -4.984375 0 L -4.984375 34.609375 L -13.421875 34.609375 L -13.421875 29.453125 L -14.09375 29.328125 C -14.925781 31.253906 -16.019531 32.664062 -17.375 33.5625 C -18.738281 34.46875 -20.394531 34.921875 -22.34375 34.921875 C -24.300781 34.921875 -25.796875 34.582031 -26.828125 33.90625 L -25.34375 26.421875 L -24.6875 26.296875 C -24.125 26.523438 -23.582031 26.691406 -23.0625 26.796875 C -22.539062 26.898438 -21.898438 26.953125 -21.140625 26.953125 C -18.710938 26.953125 -16.859375 26.097656 -15.578125 24.390625 C -14.304688 22.679688 -13.671875 19.945312 -13.671875 16.1875 L -13.671875 0 Z M -4.984375 0 "/></g></g></g></g></g><g fill="#000000" fill-opacity="1"><g transform="translate(243.445388, 321.235877)"><g><path d="M 44.015625 0 L 34.484375 0 L 31.03125 -10.578125 L 13.453125 -10.578125 L 10 0 L 0.6875 0 L 16.53125 -45.859375 L 28.171875 -45.859375 Z M 21.796875 -36.296875 L 15.90625 -18.203125 L 28.515625 -18.203125 L 22.59375 -36.296875 Z M 21.796875 -36.296875 "/></g></g></g><g fill="#000000" fill-opacity="1"><g transform="translate(288.145149, 321.235877)"><g><path d="M 15.03125 0 L 5.953125 0 L 5.953125 -45.859375 L 15.03125 -45.859375 Z M 15.03125 0 "/></g></g></g></svg>